# xmcd
#
# Track frame offsets:
#	150
#	22020
#	34928
#	51563
#	72140
#	93536
#	115848
#	139130
#	156315
#	168372
#	184401
#	206695
#
# Disc length: 3069 seconds
#
# Revision: 0
# Processed by: cddbd v1.4PL0 Copyright (c) Steve Scherf et al.
# Submitted via: dBpowerAMP V4.0
#
DISCID=b30bfb0c
DTITLE=Carl Gustave - Searchin
DYEAR=2002
DGENRE=Blues
TTITLE0=Angel
TTITLE1=Dreamin Bout Reggae
TTITLE2=Josephine
TTITLE3=Searchin
TTITLE4=Wont B Waitin
TTITLE5=To Be Your Man
TTITLE6=Loves Gonna Hit You
TTITLE7=Show You
TTITLE8=He Dont Love You
TTITLE9=Empty Wine Glass
TTITLE10=Change is Good
TTITLE11=Aint No Sunshine
EXTD=
EXTT0=
EXTT1=
EXTT2=
EXTT3=
EXTT4=
EXTT5=
EXTT6=
EXTT7=
EXTT8=
EXTT9=
EXTT10=
EXTT11=
PLAYORDER=
